<svg xmlns="http://www.w3.org/2000/svg" xmlns:xlink="http://www.w3.org/1999/xlink" width="1366" zoomAndPan="magnify" viewBox="0 0 1024.5 137.999998" height="184" preserveAspectRatio="xMidYMid meet" version="1.2"><defs><clipPath id="5a0bc65e5d"><path d="M 0 0.0351562 L 1024 0.0351562 L 1024 137.964844 L 0 137.964844 Z M 0 0.0351562 "/></clipPath><clipPath id="60e2b7ce73"><path d="M 0.00390625 0.0351562 L 172.75 0.0351562 L 172.75 137.796875 L 0.00390625 137.796875 Z M 0.00390625 0.0351562 "/></clipPath><clipPath id="6cc13d3425"><path d="M 43.070312 0.0273438 C 19.382812 0.0273438 0.00390625 17.390625 0.00390625 38.609375 L 0.00390625 99.214844 C 0.00390625 120.433594 19.382812 137.796875 43.070312 137.796875 C 66.757812 137.796875 86.136719 120.433594 86.136719 99.214844 C 86.136719 120.433594 105.519531 137.796875 129.207031 137.796875 C 152.894531 137.796875 172.273438 120.433594 172.273438 99.214844 L 172.273438 38.609375 C 172.273438 17.390625 152.894531 0.0273438 129.207031 0.0273438 C 105.519531 0.0273438 86.136719 17.390625 86.136719 38.609375 C 86.136719 17.390625 66.757812 0.0273438 43.070312 0.0273438 Z M 43.070312 0.0273438 "/></clipPath><clipPath id="ea85deaf60"><path d="M 169.878906 0.0351562 L 342.625 0.0351562 L 342.625 137.796875 L 169.878906 137.796875 Z M 169.878906 0.0351562 "/></clipPath><clipPath id="28d706f3d0"><path d="M 212.945312 0.0273438 C 189.257812 0.0273438 169.878906 17.390625 169.878906 38.609375 L 169.878906 99.214844 C 169.878906 120.433594 189.257812 137.796875 212.945312 137.796875 C 236.632812 137.796875 256.015625 120.433594 256.015625 99.214844 C 256.015625 120.433594 275.394531 137.796875 299.082031 137.796875 C 322.769531 137.796875 342.152344 120.433594 342.152344 99.214844 L 342.152344 38.609375 C 342.152344 17.390625 322.769531 0.0273438 299.082031 0.0273438 C 275.394531 0.0273438 256.015625 17.390625 256.015625 38.609375 C 256.015625 17.390625 236.632812 0.0273438 212.945312 0.0273438 Z M 212.945312 0.0273438 "/></clipPath><clipPath id="77ebc9a66f"><path d="M 340.085938 0.0351562 L 512.832031 0.0351562 L 512.832031 137.796875 L 340.085938 137.796875 Z M 340.085938 0.0351562 "/></clipPath><clipPath id="7f8f18a1c1"><path d="M 383.15625 0.0273438 C 359.46875 0.0273438 340.085938 17.390625 340.085938 38.609375 L 340.085938 99.214844 C 340.085938 120.433594 359.46875 137.796875 383.15625 137.796875 C 406.84375 137.796875 426.222656 120.433594 426.222656 99.214844 C 426.222656 120.433594 445.601562 137.796875 469.289062 137.796875 C 492.976562 137.796875 512.359375 120.433594 512.359375 99.214844 L 512.359375 38.609375 C 512.359375 17.390625 492.976562 0.0273438 469.289062 0.0273438 C 445.601562 0.0273438 426.222656 17.390625 426.222656 38.609375 C 426.222656 17.390625 406.84375 0.0273438 383.15625 0.0273438 Z M 383.15625 0.0273438 "/></clipPath><clipPath id="bf0775d7b8"><path d="M 511.648438 0.0351562 L 684 0.0351562 L 684 137.796875 L 511.648438 137.796875 Z M 511.648438 0.0351562 "/></clipPath><clipPath id="09f9d72ebc"><path d="M 554.714844 0.0273438 C 531.027344 0.0273438 511.648438 17.390625 511.648438 38.609375 L 511.648438 99.214844 C 511.648438 120.433594 531.027344 137.796875 554.714844 137.796875 C 578.402344 137.796875 597.78125 120.433594 597.78125 99.214844 C 597.78125 120.433594 617.164062 137.796875 640.851562 137.796875 C 664.539062 137.796875 683.917969 120.433594 683.917969 99.214844 L 683.917969 38.609375 C 683.917969 17.390625 664.539062 0.0273438 640.851562 0.0273438 C 617.164062 0.0273438 597.78125 17.390625 597.78125 38.609375 C 597.78125 17.390625 578.402344 0.0273438 554.714844 0.0273438 Z M 554.714844 0.0273438 "/></clipPath><clipPath id="2d663d8ccf"><path d="M 681.523438 0.0351562 L 854 0.0351562 L 854 137.796875 L 681.523438 137.796875 Z M 681.523438 0.0351562 "/></clipPath><clipPath id="a318675576"><path d="M 724.589844 0.0273438 C 700.902344 0.0273438 681.523438 17.390625 681.523438 38.609375 L 681.523438 99.214844 C 681.523438 120.433594 700.902344 137.796875 724.589844 137.796875 C 748.277344 137.796875 767.660156 120.433594 767.660156 99.214844 C 767.660156 120.433594 787.039062 137.796875 810.726562 137.796875 C 834.414062 137.796875 853.792969 120.433594 853.792969 99.214844 L 853.792969 38.609375 C 853.792969 17.390625 834.414062 0.0273438 810.726562 0.0273438 C 787.039062 0.0273438 767.660156 17.390625 767.660156 38.609375 C 767.660156 17.390625 748.277344 0.0273438 724.589844 0.0273438 Z M 724.589844 0.0273438 "/></clipPath><clipPath id="3d0abbdef2"><path d="M 851.730469 0.0351562 L 1024 0.0351562 L 1024 137.796875 L 851.730469 137.796875 Z M 851.730469 0.0351562 "/></clipPath><clipPath id="710d3caa4e"><path d="M 894.800781 0.0273438 C 871.113281 0.0273438 851.730469 17.390625 851.730469 38.609375 L 851.730469 99.214844 C 851.730469 120.433594 871.113281 137.796875 894.800781 137.796875 C 918.488281 137.796875 937.867188 120.433594 937.867188 99.214844 C 937.867188 120.433594 957.246094 137.796875 980.933594 137.796875 C 1004.621094 137.796875 1024.003906 120.433594 1024.003906 99.214844 L 1024.003906 38.609375 C 1024.003906 17.390625 1004.621094 0.0273438 980.933594 0.0273438 C 957.246094 0.0273438 937.867188 17.390625 937.867188 38.609375 C 937.867188 17.390625 918.488281 0.0273438 894.800781 0.0273438 Z M 894.800781 0.0273438 "/></clipPath></defs><g id="59df975b93"><g clip-rule="nonzero" clip-path="url(#5a0bc65e5d)"><path style=" stroke:none;fill-rule:nonzero;fill:#ffffff;fill-opacity:1;" d="M 0 0.0351562 L 1024 0.0351562 L 1024 137.964844 L 0 137.964844 Z M 0 0.0351562 "/></g><g clip-rule="nonzero" clip-path="url(#60e2b7ce73)"><g clip-rule="nonzero" clip-path="url(#6cc13d3425)"><path style=" stroke:none;fill-rule:nonzero;fill:#ff0091;fill-opacity:1;" d="M 0.00390625 137.796875 L 0.00390625 0.0273438 L 172.210938 0.0273438 L 172.210938 137.796875 Z M 0.00390625 137.796875 "/></g></g><g clip-rule="nonzero" clip-path="url(#ea85deaf60)"><g clip-rule="nonzero" clip-path="url(#28d706f3d0)"><path style=" stroke:none;fill-rule:nonzero;fill:#ff0091;fill-opacity:1;" d="M 169.878906 137.796875 L 169.878906 0.0273438 L 342.085938 0.0273438 L 342.085938 137.796875 Z M 169.878906 137.796875 "/></g></g><g clip-rule="nonzero" clip-path="url(#77ebc9a66f)"><g clip-rule="nonzero" clip-path="url(#7f8f18a1c1)"><path style=" stroke:none;fill-rule:nonzero;fill:#ff0091;fill-opacity:1;" d="M 340.085938 137.796875 L 340.085938 0.0273438 L 512.292969 0.0273438 L 512.292969 137.796875 Z M 340.085938 137.796875 "/></g></g><g clip-rule="nonzero" clip-path="url(#bf0775d7b8)"><g clip-rule="nonzero" clip-path="url(#09f9d72ebc)"><path style=" stroke:none;fill-rule:nonzero;fill:#ff0091;fill-opacity:1;" d="M 511.648438 137.796875 L 511.648438 0.0273438 L 683.855469 0.0273438 L 683.855469 137.796875 Z M 511.648438 137.796875 "/></g></g><g clip-rule="nonzero" clip-path="url(#2d663d8ccf)"><g clip-rule="nonzero" clip-path="url(#a318675576)"><path style=" stroke:none;fill-rule:nonzero;fill:#ff0091;fill-opacity:1;" d="M 681.523438 137.796875 L 681.523438 0.0273438 L 853.730469 0.0273438 L 853.730469 137.796875 Z M 681.523438 137.796875 "/></g></g><g clip-rule="nonzero" clip-path="url(#3d0abbdef2)"><g clip-rule="nonzero" clip-path="url(#710d3caa4e)"><path style=" stroke:none;fill-rule:nonzero;fill:#ff0091;fill-opacity:1;" d="M 851.730469 137.796875 L 851.730469 0.0273438 L 1023.9375 0.0273438 L 1023.9375 137.796875 Z M 851.730469 137.796875 "/></g></g></g></svg>