<svg xmlns="http://www.w3.org/2000/svg" width="114" height="129" viewBox="0 0 114 129" fill="none">
<path d="M35.9999 0.000488281C16.1177 0.000488281 0 14.3269 0 32.0005V96.0005C0 113.674 16.1177 128.001 35.9999 128.001C55.8822 128.001 71.9999 113.674 71.9999 96.0005C71.9999 113.674 88.1177 128.001 108 128.001C113.523 128.001 118 123.523 118 118.001V10.0005C118 4.47759 113.523 0.000488281 108 0.000488281C88.1177 0.000488281 71.9999 14.3269 71.9999 32.0005C71.9999 14.3269 55.8822 0.000488281 35.9999 0.000488281Z" fill="#FF0091"/>
<path d="M78 0.000488281C58.1177 0.000488281 42 14.3269 42 32.0005V96.0005C42 113.674 58.1177 128.001 78 128.001C97.8822 128.001 114 113.674 114 96.0005V32.0005C114 14.3269 97.8822 0.000488281 78 0.000488281Z" fill="#F96AD9"/>
<path d="M36 0.000488281C16.1177 0.000488281 0 14.3269 0 32.0005V96.0005C0 113.674 16.1177 128.001 36 128.001C55.8822 128.001 72 113.674 72 96.0005V32.0005C72 14.3269 55.8822 0.000488281 36 0.000488281Z" fill="#FF0091"/>
<path d="M78 100.001C61.4315 100.001 48 86.5691 48 70.0005V58.0005C48 41.432 61.4315 28.0005 78 28.0005C94.5685 28.0005 108 41.432 108 58.0005V70.0005C108 86.5691 94.5685 100.001 78 100.001Z" fill="#FF0091"/>
<path d="M78 122.001C94.5685 122.001 108 108.569 108 92.0005V80.0005C108 96.5691 94.5685 110.001 78 110.001C61.4315 110.001 48 96.5691 48 80.0005V92.0005C48 108.569 61.4315 122.001 78 122.001Z" fill="#FF0091"/>
<path d="M78 118.001C94.5685 118.001 108 104.569 108 88.0005V76.0005C108 92.5691 94.5685 106.001 78 106.001C61.4315 106.001 48 92.5691 48 76.0005V88.0005C48 104.569 61.4315 118.001 78 118.001Z" fill="#FF0091"/>
<path d="M78 114.001C94.5685 114.001 108 100.569 108 84.0005V72.0005C108 88.5691 94.5685 102.001 78 102.001C61.4315 102.001 48 88.5691 48 72.0005V84.0005C48 100.569 61.4315 114.001 78 114.001Z" fill="#FF0091"/>
</svg>